<svg id="Layer_1" data-name="Layer 1" xmlns="http://www.w3.org/2000/svg" viewBox="0 0 866.81 443.06"><defs><style>.cls-1{fill:#e6e6e6;}.cls-2{fill:#ffb6b6;}.cls-3{isolation:isolate;opacity:0.1;}.cls-4{fill:#8ec5fc;}.cls-5{fill:#2f2e41;}.cls-6{fill:#f2f2f2;}.cls-7{fill:#a0616a;}.cls-8{fill:#ccc;}.cls-9{fill:#3f3d56;}</style></defs><path class="cls-1" d="M711.47,396.39H175.42a9,9,0,1,1,0-18.07H711.47a9,9,0,0,1,0,18.07Z"/><path class="cls-1" d="M592.51,443.06H294.37a9,9,0,0,1,0-18.06H592.51a9,9,0,1,1,0,18.06Z"/><polygon class="cls-2" points="235.07 81.28 268.85 67.06 283.34 96.76 247.84 111.25 235.07 81.28"/><polygon class="cls-3" points="235.07 81.28 268.85 67.06 283.34 96.76 247.84 111.25 235.07 81.28"/><path class="cls-4" d="M239.87,70l33.33,38.39s-23.18,73.18-46.37,79.7-65.93,38.4-65.93,38.4l-53.62-34.77,26.09-38.4s63-86.22,79.69-86.22S239.87,70,239.87,70Z"/><path class="cls-5" d="M194.84,320.28H117.26l-4.9-6.56L92.33,287l-4.61-6.16S70.33,248.91,74,219.93s41.29-35.5,41.29-35.5h1.55L162.93,225l-2.76,37.72L174.78,287Z"/><polygon class="cls-5" points="133.15 320.28 112.36 320.28 112.36 289.49 133.15 320.28"/><polygon class="cls-2" points="704.75 104.9 712.5 153.28 663.5 153.91 663.5 111.85 704.75 104.9"/><polygon class="cls-3" points="704.75 104.9 712.5 153.28 663.5 153.91 663.5 111.85 704.75 104.9"/><path class="cls-6" d="M821.46,273.53,818.87,287l-6.41,33.33h-129c1-7.47,2.38-18.22,3.85-29.83.15-1.16.3-2.33.44-3.5,3.69-29.18,7.73-62.19,7.73-62.19l17,2.05,32.89,4,13.41,1.62,35.89,4.36a31.09,31.09,0,0,1,26.8,36.75Z"/><path class="cls-6" d="M581.64,273.53,579.06,287l-6.42,33.33h-129c1-7.47,2.38-18.22,3.85-29.83L448,287c3.68-29.18,7.72-62.19,7.72-62.19l16.95,2.05,32.9,4,13.4,1.62,35.89,4.36a31.09,31.09,0,0,1,26.8,36.75Z"/><path class="cls-5" d="M764.14,320.28H694.2l1.67-2,21-3.46L760,307.71s2,5.09,4.1,12.57Z"/><path class="cls-5" d="M667.92,320.28H562.29q1.58-3.13,3.26-6.27a54.63,54.63,0,0,1,4.77-7.48,43.81,43.81,0,0,1,3.48-4,36.52,36.52,0,0,1,11.37-8.05c14.38-6.47,31.32-2.51,45.76,3.94a136.25,136.25,0,0,1,14.92,7.88,158.73,158.73,0,0,1,16.25,11.3c.86.69,1.33,1.09,1.33,1.09Z"/><polygon class="cls-2" points="584.12 320.28 569.14 320.28 573.09 315.69 575.32 313.1 576.28 313.87 584.12 320.28"/><path class="cls-4" d="M769.26,320.28h-129l5.61-14,7.72-19.3,3.87-9.69-3.2-13.63s-1.58-1.12-4-3.13c-8.57-7.1-27.65-25.38-23.27-44.16,5-21.38,11.25-63,12.57-72,.17-1.12.26-1.73.26-1.73L658.44,138l.61-.15,2-.5h49.88l36.68,24.85v.26l-2.24,68.3-1,29.22a38.84,38.84,0,0,0-.88,10.77A50.5,50.5,0,0,0,746.91,287a58.24,58.24,0,0,0,13.52,20.36c5.19,5.18,7.7,9.54,8.83,13Z"/><path class="cls-4" d="M758.77,232.42c-1.23,10-2.4,17.18-2.4,17.18l-12.84,21.19L733.74,287l-16.91,27.89-2.47,4.09-1.77,1.35h-53l2.54-2.73,25.25-27.1,3.27-3.5,5.3-5.69,16.55-54.45L732,162.64s7.91-2.75,15.62-.14a18.5,18.5,0,0,1,10.84,9.76c5.28,10.56,2.7,40.77.33,60.16Z"/><path class="cls-4" d="M665.49,230.67,650.26,260.5,636.76,287l-5.83,11.42-2.3,4.5-19.69,17.41H564.37l7.35-9.13,2.73-3.41,10.72-13.31,6-7.48,16.32-20.3,4.36-92.46a31.75,31.75,0,0,1,27.61-29.84l.09,0c4.94-1,12.8-1.28,18.88,4.6.21.19.41.4.61.62a21.73,21.73,0,0,1,2.87,3.83,5.05,5.05,0,0,1,.25.45,15.37,15.37,0,0,1,.73,1.52c7.76,18.07,2.59,75.32,2.59,75.32Z"/><polygon class="cls-7" points="467.45 95.77 497.87 138.78 444.81 140.37 439.12 99.94 467.45 95.77"/><polygon class="cls-3" points="467.45 95.77 497.87 138.78 444.81 140.37 439.12 99.94 467.45 95.77"/><path id="uuid-b14ece9b-aa3d-4fe4-9d8a-4500bc16dcc4-270" class="cls-7" d="M317.45,184.9c-3.91-11.26-12.88-18.38-20.05-15.89s-9.8,13.63-5.9,24.89A29.8,29.8,0,0,0,299,205.84l17.14,47.5,22.11-8.52L319,198.9a29.9,29.9,0,0,0-1.53-14Z"/><path class="cls-8" d="M523.35,163l0,43.84L519.23,223l-8.39,33.31L504.73,287l-4.55,22.82-1.62,8.15c-1.23.82-2.45,1.6-3.66,2.36h-106a82,82,0,0,1-9.39-6.43,34.65,34.65,0,0,0,3.57-4.08c3.22-4.24,7.11-11.2,4.73-17.84a12.09,12.09,0,0,1-.48-5c1-12.48,14-33.57,14-33.57l-2.71-31.32-1.18-13.72,8.37-66.91,27.31-15.88,4.72-.45,46.53-2.52,19.24,1.11.87.24,18.8,39Z"/><polygon class="cls-2" points="525.41 320.28 502.23 320.28 501.21 309.77 501.19 309.56 507.75 309.11 524.83 307.95 525.12 314.24 525.36 319.06 525.41 320.28"/><path class="cls-8" d="M531.12,173.58l9.74,57.14-8,56.23-1.24,8.75-2.18,15.46-.68,4.75,0,.51.17,3.86H501.47l-1-10.51-.08-.94-2.07-21.52,0-.36-4.4-45.63,8.62-33,.64-2.43h0l3.75-56.46L504,123.77l0-.24.16.11.45.29a57.31,57.31,0,0,1,26.57,49.65Z"/><path class="cls-8" d="M415.75,152.38l-10.59-10.95s-22.66,10.22-23.79,15.88-41.15,88.93-41.15,88.93l-17.41-46.5-22.66,15.13s18.18,72.19,35.19,75.58,74-85.44,74-85.44l6.41-52.63Z"/><circle class="cls-2" cx="678.78" cy="91.21" r="35.23"/><path class="cls-5" d="M693.38,105.06S689.73,95,687.66,89.77s-.72-12-.72-12-27.63-6.1-38.45-.06-11.55-24.36-.57-32.63c0,0,2.94,5.11,1.8,6.58l-1.14,1.47s8.31-17.58,22.34-18.46c0,0,6.65,5.31,4.15,7.06s18.48-9.9,22.13.16c0,0,13.39,2.38,10.78,7L708.2,52s12.13-1.26,11.26,7.33c0,0-4.08-.81-6.69.93s6.21,10,6.21,10,5.3,34.43-13.08,44.34c0,0,3-15.67-4-13.11s-8.49,3.55-8.49,3.55Z"/><path class="cls-1" d="M845.64,328.78H21.16a21.17,21.17,0,0,1,0-42.33H845.64a21.17,21.17,0,1,1,0,42.33Z"/><path class="cls-9" d="M518.52,221.94l-1.6,74.8a13.32,13.32,0,0,1-13.31,13H366a13.31,13.31,0,0,1-13.29-12.59l-4.09-74.8a13.31,13.31,0,0,1,13.29-14h143.3a13.31,13.31,0,0,1,13.31,13.6Z"/><path class="cls-9" d="M817.52,221.94l-1.6,74.8a13.32,13.32,0,0,1-13.31,13H665a13.31,13.31,0,0,1-13.29-12.59l-4.09-74.8a13.31,13.31,0,0,1,13.29-14h143.3a13.31,13.31,0,0,1,13.31,13.6Z"/><circle class="cls-2" cx="296.38" cy="66.41" r="32.92"/><polygon class="cls-2" points="241.32 152.55 244.94 191.68 269.58 290.94 248.3 298.39 212.34 190.23 207.37 146.75 241.32 152.55"/><path class="cls-9" d="M231.52,221.94l-1.6,74.8a13.32,13.32,0,0,1-13.31,13H79a13.31,13.31,0,0,1-13.29-12.59l-4.09-74.8a13.31,13.31,0,0,1,13.29-14h143.3a13.31,13.31,0,0,1,13.31,13.6Z"/><ellipse class="cls-2" cx="273.5" cy="298.78" rx="26" ry="11.5"/><path class="cls-4" d="M190.24,158.53l14.85-79.16s41.3-5.79,42.75,8-1,81-1,81l-56.57-9.86Z"/><path class="cls-5" d="M283.1,71.59s20.36-7.27,28.95-11.18,25.66,23.36,26,9-5.52-20.45-5.52-20.45-1.47-31.51-33.22-27.57c0,0,7-15.77-15.94-18.21S224.82,56.06,228,64.33s7,15.12-2,24-26,58.77-13.12,72.21,13.76,19.26,4.91,27.62S188,214.65,210.62,217.8s-2.07.8,14.78-14,41.45-14.22,32.27-38,6.77-57.87,4.77-63,4.47-38,4.47-38S282,62.51,283.1,71.59Z"/><circle class="cls-7" cx="451.19" cy="75.5" r="35.84"/><path class="cls-5" d="M454.05,27.32c-1,.6-2.42-.31-2.76-1.47a6,6,0,0,1,.44-3.51l1.94-5.73c1.37-4.06,2.82-8.27,5.79-11.36,4.48-4.66,11.61-5.85,18-5,8.24,1.1,16.36,5.56,20.19,12.94s2.2,17.66-4.72,22.26c9.87,11.31,13.3,23.9,12.76,38.9s-16.88,28.78-27.53,39.34c-2.38-1.44-4.54-8.2-3.24-10.65s-.56-5.3,1.06-7.56,3,1.33,1.34-.91c-1-1.42,3-4.69,1.46-5.54-7.43-4.1-9.9-13.37-14.57-20.46a34.86,34.86,0,0,0-25.46-15.31c-5.62-.53-11.55.43-16.16,3.69s-7.58,9.09-6.52,14.63a13,13,0,0,1,2.71-20.34,21.21,21.21,0,0,1,4.5-20c4.8-5.3,24.28-4.4,31.29-3l-.54-.93Z"/><path class="cls-5" d="M455.14,53.47c9.28,1,16,9.05,21.65,16.48,3.26,4.28,6.68,9,6.6,14.39s-3.72,10.11-5.46,15.26a23,23,0,0,0,6.69,24.24c-6.68,1.26-13.91-3.75-15.06-10.45-1.35-7.81,4.57-15.34,3.87-23.23-.62-7-6.1-12.3-10.75-17.5s-9-12.09-6.89-18.74l-.65-.45Z"/></svg>