<svg id="Layer_1" data-name="Layer 1" xmlns="http://www.w3.org/2000/svg" xmlns:xlink="http://www.w3.org/1999/xlink" viewBox="0 0 501.28 732.35"><defs><style>.cls-1{fill:url(#G1);}.cls-2{font-size:51px;fill:#fff;font-family:CALVIN-Bold, CALVIN;font-weight:700;}</style><linearGradient id="G1" x1="113.03" y1="478.34" x2="474.23" y2="162.79" gradientUnits="userSpaceOnUse"><stop offset="0" stop-color="#8ec5fc"/><stop offset="0.01" stop-color="#8fc4fb"/><stop offset="0.87" stop-color="#f881c4" stop-opacity="0.8"/></linearGradient></defs><path class="cls-1" d="M456.54,359.72a238.78,238.78,0,0,1,32.08,119.9c0,132.45-107.37,239.82-239.8,239.82S9,612.07,9,479.62H248.82A239.71,239.71,0,0,1,9,239.82C9,107.37,116.37,0,248.82,0s239.8,107.37,239.8,239.82H248.82A239.7,239.7,0,0,1,456.54,359.72Z"/><text class="cls-2" transform="translate(12.04 523.74) rotate(73.56)">G</text><text class="cls-2" transform="translate(27.79 575.6) rotate(60.36)">r</text><text class="cls-2" transform="translate(56.76 625.79) rotate(45.97)">a</text><text class="cls-2" transform="matrix(0.85, 0.53, -0.53, 0.85, 101.72, 670.62)">p</text><text class="cls-2" transform="translate(149.34 699.16) rotate(18.66)">h</text><text class="cls-2" transform="translate(198.25 714.19) rotate(10.02)">i</text><text class="cls-2" transform="translate(218.43 718.62) rotate(1.55)">c</text><text class="cls-2" transform="translate(268.82 718.68) rotate(-7.14)"> </text><text class="cls-2" transform="translate(291.8 716.67) rotate(-16)">D</text><text class="cls-2" transform="translate(342.95 701.2) rotate(-28.03)">e</text><text class="cls-2" transform="matrix(0.76, -0.65, 0.65, 0.76, 385.56, 678.54)">s</text><text class="cls-2" transform="matrix(0.65, -0.76, 0.76, 0.65, 424.41, 643.17)">i</text><text class="cls-2" transform="matrix(0.52, -0.85, 0.85, 0.52, 438.7, 627.87)">g</text><text class="cls-2" transform="translate(465.98 581.57) rotate(-70.91)">n</text><text class="cls-2" transform="matrix(0.14, -0.99, 0.99, 0.14, 482.3, 533.33)">s</text></svg>